# xmcd CD database file
#
# Track frame offsets:
#	150
#	13300
#	33215
#	55928
#	68453
#	85604
#	104434
#	117368
#	126229
#	143850
#	164037
#	178445
#	199722
#
# Disc length: 2870 seconds
#
# Revision: 2
# Processed by: cddbd v1.4b41PL1 Copyright (c) Steve Scherf et al.
# Submitted via: Feurio! 1.50.2ß - http://www.feurio.com
#
DISCID=b90b340d
DTITLE=Egidio Juke Ingala Band - Nite Life Boogie
DYEAR=1900
DGENRE=
TTITLE0=Nite Life Boogie
TTITLE1=Let Me Back
TTITLE2=How Could I Love You
TTITLE3=If You Love Me, Baby
TTITLE4=I Knew
TTITLE5=Strollin' With Shirley
TTITLE6=I Had My Fun
TTITLE7=Baby, You Don't Know
TTITLE8=How Fine Can You Be
TTITLE9=Let Me Say
TTITLE10=Schultzville USA
TTITLE11=You Don't Even Know
TTITLE12=Blowin' Red's Top
EXTD=
EXTT0=
EXTT1=
EXTT2=
EXTT3=
EXTT4=
EXTT5=
EXTT6=
EXTT7=
EXTT8=
EXTT9=
EXTT10=
EXTT11=
EXTT12=
PLAYORDER=
